<?xml version="1.0" ?><!DOCTYPE svg  PUBLIC '-//W3C//DTD SVG 1.1//EN'  'http://www.w3.org/Graphics/SVG/1.1/DTD/svg11.dtd'><svg height="162px" style="enable-background:new 0 0 164 162;" version="1.1" viewBox="0 0 164 162" width="164px" xml:space="preserve" xmlns="http://www.w3.org/2000/svg" xmlns:xlink="http://www.w3.org/1999/xlink"><style type="text/css">
<![CDATA[
	.st0{fill:#EF3E42;}
	.st1{fill:#FFFFFF;}
	.st2{fill:none;}
	.st3{fill-rule:evenodd;clip-rule:evenodd;fill:#FFFFFF;}
]]>
</style><defs/><path d="M73.2,25l27.6-2.8L112,125.5l-27.6,2.8L73.2,25L73.2,25z M90.7,110.4c0.3,3,3.1,5.2,6.2,4.9c3.1-0.3,5.4-3,5-6  c-0.3-3-3.1-5.2-6.2-4.9C92.6,104.7,90.4,107.4,90.7,110.4L90.7,110.4z M82.4,35.5l3.8,34.6L97.7,69L94,34.4L82.4,35.5L82.4,35.5z   M43.5,24.4h27.8v103.9H43.5V24.4L43.5,24.4z M51.8,111.1c0,3,2.5,5.5,5.7,5.5c3.1,0,5.6-2.5,5.6-5.5c0-3-2.5-5.5-5.6-5.5  C54.3,105.6,51.8,108.1,51.8,111.1L51.8,111.1z M51.6,70.7h11.6V35.8H51.6V70.7L51.6,70.7z M10.9,24.4h27.8v103.9H10.9V24.4  L10.9,24.4z M19.1,111.1c0,3,2.5,5.5,5.6,5.5c3.1,0,5.7-2.5,5.7-5.5c0-3-2.5-5.5-5.7-5.5C21.6,105.6,19.1,108.1,19.1,111.1  L19.1,111.1z M19,70.7h11.6V35.8H19V70.7L19,70.7z M114.4,36.1l6.9,34.2l11.4-2.1l-6.9-34.2L114.4,36.1L114.4,36.1z M129.4,109.9  c0.6,3,3.6,4.9,6.6,4.3c3.1-0.6,5.1-3.5,4.5-6.4c-0.6-3-3.6-4.9-6.6-4.3C130.8,104.1,128.8,106.9,129.4,109.9L129.4,109.9z   M104.2,26.3l27.3-5.1l20.5,102l-27.3,5.1L104.2,26.3L104.2,26.3z"/><rect class="st2" height="162" id="_x3C_Slice_x3E__100_" width="164"/></svg>